<?xml version="1.0" encoding="utf-8"?>
<!-- Generator: Adobe Illustrator 25.4.1, SVG Export Plug-In . SVG Version: 6.00 Build 0)  -->
<svg version="1.1" id="Layer_1" xmlns="http://www.w3.org/2000/svg" xmlns:xlink="http://www.w3.org/1999/xlink" x="0px" y="0px"
	 viewBox="0 0 200 53.3" style="enable-background:new 0 0 200 53.3;" xml:space="preserve">
<style type="text/css">
	.st0{clip-path:url(#SVGID_00000002376352017187644130000006269990129397054128_);}
	.st1{clip-path:url(#SVGID_00000099636957611844574260000017131476074180882862_);fill:#002E5D;}
	.st2{clip-path:url(#SVGID_00000085218756548055876580000015873289045438952864_);fill:#002E5D;}
	.st3{clip-path:url(#SVGID_00000136393996309896125890000008576249746350946978_);fill:#002E5D;}
	.st4{clip-path:url(#SVGID_00000142164782878767572020000003212169463838544057_);fill:#002E5D;}
	.st5{clip-path:url(#SVGID_00000056418804790223586690000017739308504131713963_);fill:#002E5D;}
	.st6{clip-path:url(#SVGID_00000085220720959512595670000003190796309949261234_);fill:#002E5D;}
	.st7{clip-path:url(#SVGID_00000107589668534078260440000010023536120946900158_);fill:#002E5D;}
	.st8{clip-path:url(#SVGID_00000111167526645561741930000012866907662736037760_);fill:#002E5D;}
	.st9{clip-path:url(#SVGID_00000117641554804983409900000000376047309446731444_);fill:#002E5D;}
	.st10{clip-path:url(#SVGID_00000068638710748071643750000013094852510803387273_);fill:#002E5D;}
	.st11{clip-path:url(#SVGID_00000157277681844223319790000009704852061932837566_);fill:#002E5D;}
	.st12{clip-path:url(#SVGID_00000003076100252947359370000017613595584496234674_);fill:#002E5D;}
	.st13{clip-path:url(#SVGID_00000044865892989748576680000000981091137173295252_);fill:#002E5D;}
	.st14{clip-path:url(#SVGID_00000129899226003624653400000015551958211082269320_);fill:#002E5D;}
	.st15{clip-path:url(#SVGID_00000080199018518574602070000004963538384877963403_);fill:#002E5D;}
	.st16{clip-path:url(#SVGID_00000057110653931005603720000010407595319693696150_);fill:#002E5D;}
	.st17{clip-path:url(#SVGID_00000047765656474892658110000006403479145317168536_);fill:#002E5D;}
	.st18{clip-path:url(#SVGID_00000177466201767493476270000009682243467874972089_);fill:#002E5D;}
	.st19{clip-path:url(#SVGID_00000173132348772536432780000002975721445299871665_);fill:#002E5D;}
	.st20{clip-path:url(#SVGID_00000128483457803002622980000010828792250367544738_);fill:#002E5D;}
	.st21{clip-path:url(#SVGID_00000112604073315985852150000016300181420461945500_);fill:#002E5D;}
	.st22{clip-path:url(#SVGID_00000144299260428643941840000018438051991343782044_);fill:#002E5D;}
	.st23{clip-path:url(#SVGID_00000051379187911157804810000014995494529834801314_);fill:#002E5D;}
	.st24{clip-path:url(#SVGID_00000058583442262478970110000016139735423339490465_);fill:#002E5D;}
	.st25{clip-path:url(#SVGID_00000065787077938775507000000001917029013139509923_);fill:#002E5D;}
</style>
<g>
	<g>
		<g>
			<defs>
				<rect id="SVGID_1_" x="48.5" width="103.1" height="53.3"/>
			</defs>
			<clipPath id="SVGID_00000155857043762040518680000007938830870718404028_">
				<use xlink:href="#SVGID_1_"  style="overflow:visible;"/>
			</clipPath>
			<g style="clip-path:url(#SVGID_00000155857043762040518680000007938830870718404028_);">
				<g>
					<defs>
						<rect id="SVGID_00000097477882342644324170000010756411355127018404_" x="48.5" width="103.1" height="53.3"/>
					</defs>
					<clipPath id="SVGID_00000137111055580416774970000015330269003087110575_">
						<use xlink:href="#SVGID_00000097477882342644324170000010756411355127018404_"  style="overflow:visible;"/>
					</clipPath>
					<path style="clip-path:url(#SVGID_00000137111055580416774970000015330269003087110575_);fill:#002E5D;" d="M51.8,31.6
						c1.4,0,2.2,0.7,2.2,1.8v0.3c0,0.9-0.5,1.3-1.2,1.5l0,0c0.8,0.2,1.3,0.7,1.3,1.6v0.4c0,1.2-0.8,1.8-2.2,1.8h-3.4v-7.5h3.3V31.6z
						 M50,34.8h1.4c0.6,0,1-0.3,1-0.8v-0.4c0-0.5-0.3-0.7-0.9-0.7H50V34.8z M50,37.9h1.5c0.6,0,0.9-0.3,0.9-0.8v-0.4
						c0-0.5-0.3-0.8-0.9-0.8H50V37.9z"/>
				</g>
				<g>
					<defs>
						<rect id="SVGID_00000137821259143372771990000002859955161502633635_" x="48.5" width="103.1" height="53.3"/>
					</defs>
					<clipPath id="SVGID_00000138548480163372135970000006809085527396379292_">
						<use xlink:href="#SVGID_00000137821259143372771990000002859955161502633635_"  style="overflow:visible;"/>
					</clipPath>
					<path style="clip-path:url(#SVGID_00000138548480163372135970000006809085527396379292_);fill:#002E5D;" d="M58.6,39.1H57v-7.5
						h3.3c1.6,0,2.4,0.8,2.4,2.1v0.6c0,0.9-0.5,1.6-1.4,1.9l1.6,2.9h-1.7l-1.5-2.7h-1.1C58.6,36.4,58.6,39.1,58.6,39.1z M58.6,35.1
						h1.3c0.8,0,1.1-0.3,1.1-0.9v-0.4c0-0.6-0.3-0.9-1.1-0.9h-1.3V35.1z"/>
				</g>
				<g>
					<defs>
						<rect id="SVGID_00000112633747778059962840000017747676746282339466_" x="48.5" width="103.1" height="53.3"/>
					</defs>
					<clipPath id="SVGID_00000125595078689816618460000000296230476923427717_">
						<use xlink:href="#SVGID_00000112633747778059962840000017747676746282339466_"  style="overflow:visible;"/>
					</clipPath>
					
						<rect x="65.7" y="31.6" style="clip-path:url(#SVGID_00000125595078689816618460000000296230476923427717_);fill:#002E5D;" width="1.6" height="7.5"/>
				</g>
				<g>
					<defs>
						<rect id="SVGID_00000067224664817412550140000005688725162665566615_" x="48.5" width="103.1" height="53.3"/>
					</defs>
					<clipPath id="SVGID_00000080178281050411989910000003629604332118861227_">
						<use xlink:href="#SVGID_00000067224664817412550140000005688725162665566615_"  style="overflow:visible;"/>
					</clipPath>
					<path style="clip-path:url(#SVGID_00000080178281050411989910000003629604332118861227_);fill:#002E5D;" d="M76.2,33.9v0.3
						h-1.6V34c0-0.8-0.4-1.2-1.3-1.2c-1,0-1.5,0.7-1.5,1.7v1.7c0,1.1,0.6,1.7,1.5,1.7c0.8,0,1.4-0.5,1.4-1.4v-0.3h-1.4v-1.1h2.9v4
						h-0.7L75.2,38c-0.4,0.7-1,1.3-2.2,1.3c-1.7,0-2.8-1.2-2.8-3v-1.7c0-1.8,1.2-3.1,3.1-3.1C75.2,31.5,76.2,32.4,76.2,33.9"/>
				</g>
				<g>
					<defs>
						<rect id="SVGID_00000083781201170583362550000008724543227207660933_" x="48.5" width="103.1" height="53.3"/>
					</defs>
					<clipPath id="SVGID_00000052061671529961535750000012984984320449449903_">
						<use xlink:href="#SVGID_00000083781201170583362550000008724543227207660933_"  style="overflow:visible;"/>
					</clipPath>
					<polygon style="clip-path:url(#SVGID_00000052061671529961535750000012984984320449449903_);fill:#002E5D;" points="80.9,31.6 
						80.9,34.6 83.7,34.6 83.7,31.6 85.2,31.6 85.2,39.1 83.7,39.1 83.7,36 80.9,36 80.9,39.1 79.3,39.1 79.3,31.6 					"/>
				</g>
				<g>
					<defs>
						<rect id="SVGID_00000129903544075125746380000013813160443489699996_" x="48.5" width="103.1" height="53.3"/>
					</defs>
					<clipPath id="SVGID_00000061438837871035688300000002268732339120222626_">
						<use xlink:href="#SVGID_00000129903544075125746380000013813160443489699996_"  style="overflow:visible;"/>
					</clipPath>
					<path style="clip-path:url(#SVGID_00000061438837871035688300000002268732339120222626_);fill:#002E5D;" d="M92.6,37.7h-2.7
						l-0.4,1.4h-1.6l2.5-7.5h1.8l2.5,7.5h-1.7L92.6,37.7z M90.2,36.5h1.9l-0.9-3.1l0,0L90.2,36.5z"/>
				</g>
				<g>
					<defs>
						<rect id="SVGID_00000011710087064883934910000011498344694165875339_" x="48.5" width="103.1" height="53.3"/>
					</defs>
					<clipPath id="SVGID_00000112598152669756034830000004037070261242236047_">
						<use xlink:href="#SVGID_00000011710087064883934910000011498344694165875339_"  style="overflow:visible;"/>
					</clipPath>
					<polygon style="clip-path:url(#SVGID_00000112598152669756034830000004037070261242236047_);fill:#002E5D;" points="99.7,31.6 
						101.4,36.8 101.4,36.8 103.1,31.6 105.4,31.6 105.4,39.1 103.9,39.1 103.9,33.5 103.8,33.5 101.9,39.1 100.7,39.1 98.8,33.5 
						98.8,33.5 98.8,39.1 97.4,39.1 97.4,31.6 					"/>
				</g>
				<g>
					<defs>
						<rect id="SVGID_00000035512766230837697220000017416686762922432403_" x="48.5" width="103.1" height="53.3"/>
					</defs>
					<clipPath id="SVGID_00000015340195793235676840000006186711953596137373_">
						<use xlink:href="#SVGID_00000035512766230837697220000017416686762922432403_"  style="overflow:visible;"/>
					</clipPath>
					<polygon style="clip-path:url(#SVGID_00000015340195793235676840000006186711953596137373_);fill:#002E5D;" points="
						113.6,31.6 115.1,34.8 116.6,31.6 118.4,31.6 115.9,36.3 115.9,39.1 114.2,39.1 114.2,36.3 111.8,31.6 					"/>
				</g>
				<g>
					<defs>
						<rect id="SVGID_00000180354624135235343950000003957152730462206603_" x="48.5" width="103.1" height="53.3"/>
					</defs>
					<clipPath id="SVGID_00000131366850773900572010000015691321908113048467_">
						<use xlink:href="#SVGID_00000180354624135235343950000003957152730462206603_"  style="overflow:visible;"/>
					</clipPath>
					<path style="clip-path:url(#SVGID_00000131366850773900572010000015691321908113048467_);fill:#002E5D;" d="M126.1,34.6v1.5
						c0,2.1-1.2,3.2-3.2,3.2c-1.9,0-3.2-1.1-3.2-3.2v-1.5c0-2.1,1.2-3.2,3.2-3.2C124.9,31.5,126.1,32.6,126.1,34.6 M121.4,34.6v1.6
						c0,1.2,0.6,1.8,1.5,1.8c1,0,1.5-0.5,1.5-1.8v-1.6c0-1.2-0.6-1.8-1.5-1.8C121.9,32.8,121.4,33.4,121.4,34.6"/>
				</g>
				<g>
					<defs>
						<rect id="SVGID_00000124869025146222978610000002138196076833560464_" x="48.5" width="103.1" height="53.3"/>
					</defs>
					<clipPath id="SVGID_00000033330916563966225390000011683120902329150340_">
						<use xlink:href="#SVGID_00000124869025146222978610000002138196076833560464_"  style="overflow:visible;"/>
					</clipPath>
					<path style="clip-path:url(#SVGID_00000033330916563966225390000011683120902329150340_);fill:#002E5D;" d="M130.1,31.6v4.8
						c0,0.9,0.5,1.4,1.3,1.4c0.9,0,1.3-0.5,1.3-1.4v-4.8h1.5v4.8c0,1.8-1,2.9-2.9,2.9c-2,0-2.9-1-2.9-2.9v-4.8
						C128.4,31.6,130.1,31.6,130.1,31.6z"/>
				</g>
				<g>
					<defs>
						<rect id="SVGID_00000048473257998235884010000012068327711716226204_" x="48.5" width="103.1" height="53.3"/>
					</defs>
					<clipPath id="SVGID_00000132780696914310452400000001186741767396372866_">
						<use xlink:href="#SVGID_00000048473257998235884010000012068327711716226204_"  style="overflow:visible;"/>
					</clipPath>
					<polygon style="clip-path:url(#SVGID_00000132780696914310452400000001186741767396372866_);fill:#002E5D;" points="
						138.6,31.6 141.6,36.4 141.6,36.4 141.6,31.6 143.1,31.6 143.1,39.1 141.4,39.1 138.6,34.3 138.4,34.3 138.6,39.1 137.1,39.1 
						137.1,31.6 					"/>
				</g>
				<g>
					<defs>
						<rect id="SVGID_00000172400116321482235140000000227347498210146993_" x="48.5" width="103.1" height="53.3"/>
					</defs>
					<clipPath id="SVGID_00000171679650042601979030000004763425549126814086_">
						<use xlink:href="#SVGID_00000172400116321482235140000000227347498210146993_"  style="overflow:visible;"/>
					</clipPath>
					<path style="clip-path:url(#SVGID_00000171679650042601979030000004763425549126814086_);fill:#002E5D;" d="M151.6,33.9v0.3
						h-1.6V34c0-0.8-0.4-1.2-1.3-1.2c-1,0-1.5,0.7-1.5,1.7v1.7c0,1.1,0.6,1.7,1.5,1.7c0.8,0,1.4-0.5,1.4-1.4v-0.3h-1.4v-1.1h2.9v4
						h-0.7l-0.2-1.1c-0.4,0.7-1,1.3-2.2,1.3c-1.7,0-2.8-1.2-2.8-3v-1.7c0-1.8,1.2-3.1,3.1-3.1C150.6,31.5,151.6,32.4,151.6,33.9"/>
				</g>
				<g>
					<defs>
						<rect id="SVGID_00000034810182074912853900000013739470140976412851_" x="48.5" width="103.1" height="53.3"/>
					</defs>
					<clipPath id="SVGID_00000049925708301040193910000001291887277505662132_">
						<use xlink:href="#SVGID_00000034810182074912853900000013739470140976412851_"  style="overflow:visible;"/>
					</clipPath>
					<path style="clip-path:url(#SVGID_00000049925708301040193910000001291887277505662132_);fill:#002E5D;" d="M69.8,47.1V51
						c0,0.7,0.4,1.2,1.1,1.2c0.7,0,1.1-0.4,1.1-1.2v-3.9h1.2v3.8c0,1.5-0.8,2.3-2.3,2.3c-1.6,0-2.3-0.8-2.3-2.3v-3.8H69.8z"/>
				</g>
				<g>
					<defs>
						<rect id="SVGID_00000156585788761763887710000004442375148973280925_" x="48.5" width="103.1" height="53.3"/>
					</defs>
					<clipPath id="SVGID_00000167354691020988608020000015622038885982750911_">
						<use xlink:href="#SVGID_00000156585788761763887710000004442375148973280925_"  style="overflow:visible;"/>
					</clipPath>
					<polygon style="clip-path:url(#SVGID_00000167354691020988608020000015622038885982750911_);fill:#002E5D;" points="77.3,47.1 
						79.7,51 79.7,51 79.7,47.1 80.9,47.1 80.9,53.1 79.6,53.1 77.2,49.3 77.2,49.3 77.2,53.1 76.1,53.1 76.1,47.1 					"/>
				</g>
				<g>
					<defs>
						<rect id="SVGID_00000080891568239599561540000014486538662852277655_" x="48.5" width="103.1" height="53.3"/>
					</defs>
					<clipPath id="SVGID_00000147201553761376520750000016105746578703654584_">
						<use xlink:href="#SVGID_00000080891568239599561540000014486538662852277655_"  style="overflow:visible;"/>
					</clipPath>
					
						<rect x="83.8" y="47.1" style="clip-path:url(#SVGID_00000147201553761376520750000016105746578703654584_);fill:#002E5D;" width="1.3" height="6"/>
				</g>
				<g>
					<defs>
						<rect id="SVGID_00000127024128457705954340000016951657248721597350_" x="48.5" width="103.1" height="53.3"/>
					</defs>
					<clipPath id="SVGID_00000041272085002171273890000001027706681556468654_">
						<use xlink:href="#SVGID_00000127024128457705954340000016951657248721597350_"  style="overflow:visible;"/>
					</clipPath>
					<polygon style="clip-path:url(#SVGID_00000041272085002171273890000001027706681556468654_);fill:#002E5D;" points="88.9,47.1 
						90.2,51.4 90.2,51.4 91.6,47.1 92.9,47.1 90.9,53.2 89.6,53.2 87.6,47.1 					"/>
				</g>
				<g>
					<defs>
						<rect id="SVGID_00000167368667898736693930000007201266591381457818_" x="48.5" width="103.1" height="53.3"/>
					</defs>
					<clipPath id="SVGID_00000045592284914939918280000007698185049070032524_">
						<use xlink:href="#SVGID_00000167368667898736693930000007201266591381457818_"  style="overflow:visible;"/>
					</clipPath>
					<polygon style="clip-path:url(#SVGID_00000045592284914939918280000007698185049070032524_);fill:#002E5D;" points="99.4,47.1 
						99.4,48.3 96.6,48.3 96.6,49.6 98.8,49.6 98.8,50.6 96.6,50.6 96.6,52 99.4,52 99.4,53.1 95.2,53.1 95.2,47.1 					"/>
				</g>
				<g>
					<defs>
						<rect id="SVGID_00000157275622026514850820000015683369242588528062_" x="48.5" width="103.1" height="53.3"/>
					</defs>
					<clipPath id="SVGID_00000006669081140561004730000007744742617020365750_">
						<use xlink:href="#SVGID_00000157275622026514850820000015683369242588528062_"  style="overflow:visible;"/>
					</clipPath>
					<path style="clip-path:url(#SVGID_00000006669081140561004730000007744742617020365750_);fill:#002E5D;" d="M103.2,53.1h-1.3
						v-6h2.6c1.3,0,1.9,0.6,1.9,1.7v0.5c0,0.7-0.4,1.3-1.1,1.5l1.3,2.3h-1.4l-1.1-2.1h-0.9V53.1z M103.2,50h1c0.6,0,0.9-0.3,0.9-0.7
						V49c0-0.5-0.3-0.7-0.9-0.7h-1.1L103.2,50L103.2,50z"/>
				</g>
				<g>
					<defs>
						<rect id="SVGID_00000174568528287626518020000011187292611880905400_" x="48.5" width="103.1" height="53.3"/>
					</defs>
					<clipPath id="SVGID_00000026854002122081274710000015888240970109031095_">
						<use xlink:href="#SVGID_00000174568528287626518020000011187292611880905400_"  style="overflow:visible;"/>
					</clipPath>
					<path style="clip-path:url(#SVGID_00000026854002122081274710000015888240970109031095_);fill:#002E5D;" d="M113.6,48.8V49
						h-1.3v-0.2c0-0.4-0.3-0.8-1-0.8c-0.6,0-0.9,0.3-0.9,0.6c0,0.5,0.3,0.6,1.3,0.9c1.5,0.4,2,0.9,2,1.8c0,1.1-0.9,1.8-2.3,1.8
						c-1.6,0-2.3-0.7-2.3-1.8V51h1.3v0.2c0,0.6,0.4,0.9,1.1,0.9c0.6,0,1-0.2,1-0.7s-0.2-0.6-1.4-1c-1.4-0.4-1.9-0.8-1.9-1.8
						s0.8-1.7,2.2-1.7C112.9,47,113.6,47.8,113.6,48.8"/>
				</g>
				<g>
					<defs>
						<rect id="SVGID_00000091005422464937528410000016027105998925408682_" x="48.5" width="103.1" height="53.3"/>
					</defs>
					<clipPath id="SVGID_00000056400368200274376080000005177154550761223332_">
						<use xlink:href="#SVGID_00000091005422464937528410000016027105998925408682_"  style="overflow:visible;"/>
					</clipPath>
					
						<rect x="116.4" y="47.1" style="clip-path:url(#SVGID_00000056400368200274376080000005177154550761223332_);fill:#002E5D;" width="1.3" height="6"/>
				</g>
				<g>
					<defs>
						<rect id="SVGID_00000147932383612759592900000016753456100993224581_" x="48.5" width="103.1" height="53.3"/>
					</defs>
					<clipPath id="SVGID_00000108308312107230958700000007807432770049388477_">
						<use xlink:href="#SVGID_00000147932383612759592900000016753456100993224581_"  style="overflow:visible;"/>
					</clipPath>
					<polygon style="clip-path:url(#SVGID_00000108308312107230958700000007807432770049388477_);fill:#002E5D;" points="
						124.9,47.1 124.9,48.3 123.1,48.3 123.1,53.1 121.9,53.1 121.9,48.3 120.1,48.3 120.1,47.1 					"/>
				</g>
				<g>
					<defs>
						<rect id="SVGID_00000148658604737132670610000015175297414852216961_" x="48.5" width="103.1" height="53.3"/>
					</defs>
					<clipPath id="SVGID_00000163065135053865835630000011171740277907781567_">
						<use xlink:href="#SVGID_00000148658604737132670610000015175297414852216961_"  style="overflow:visible;"/>
					</clipPath>
					<polygon style="clip-path:url(#SVGID_00000163065135053865835630000011171740277907781567_);fill:#002E5D;" points="
						128.1,47.1 129.4,49.7 130.6,47.1 131.9,47.1 129.9,50.9 129.9,53.1 128.6,53.1 128.6,50.9 126.6,47.1 					"/>
				</g>
				<g>
					<defs>
						<rect id="SVGID_00000147906023941009826280000007685015168440035469_" x="48.5" width="103.1" height="53.3"/>
					</defs>
					<clipPath id="SVGID_00000145744184785619814930000003223363329163485067_">
						<use xlink:href="#SVGID_00000147906023941009826280000007685015168440035469_"  style="overflow:visible;"/>
					</clipPath>
					<path style="clip-path:url(#SVGID_00000145744184785619814930000003223363329163485067_);fill:#002E5D;" d="M74.2,7.1V3.9
						c0-0.2,0-0.4,0-0.4s0.2,0,0.4,0h2.4c1.9,0,2.9,0.3,2.9,2c0,1.1-0.7,2.1-2.9,2.1h-2.5c-0.2,0-0.4,0-0.4,0S74.2,7.3,74.2,7.1
						 M74.2,14.5v-3.7c0-0.3,0-0.4,0-0.4s0.2,0,0.4,0h2.1c1.6,0,3.6,0,3.6,2.3c0,1.7-1.4,2.3-3.4,2.3h-2.3c-0.2,0-0.4,0-0.4,0
						S74.2,14.7,74.2,14.5 M68.3,1.5V17c0,0.5,0,0.7-0.3,0.9c-0.3,0.2-0.7,0.3-1.3,0.4l0,0c-0.1,0,0,0.2,0,0.2h12.6
						c5.3,0,7.5-2.1,7.5-5.4c0-2.4-1.1-3.9-3.4-4.5V8.5c1.4-0.4,2.7-1.5,2.7-4c0-3.4-2.3-4.6-7.4-4.6L66.8,0c-0.1,0-0.1,0.2,0,0.2
						l0,0c0.6,0.1,0.9,0.1,1.3,0.4C68.3,0.8,68.3,1,68.3,1.5"/>
				</g>
				<g>
					<defs>
						<rect id="SVGID_00000101807638203932824440000010991974072940313011_" x="48.5" width="103.1" height="53.3"/>
					</defs>
					<clipPath id="SVGID_00000039835293194909378790000009703878227637299111_">
						<use xlink:href="#SVGID_00000101807638203932824440000010991974072940313011_"  style="overflow:visible;"/>
					</clipPath>
					<path style="clip-path:url(#SVGID_00000039835293194909378790000009703878227637299111_);fill:#002E5D;" d="M131.6,1.5
						c0-0.5,0-0.7,0.3-0.9s0.7-0.3,1.3-0.4l0,0c0.1,0,0-0.2,0-0.2h-9.3c-0.1,0-0.1,0.2,0,0.2l0,0c0.6,0.1,0.9,0.1,1.2,0.3
						c0.4,0.2,0.3,0.4,0.3,0.9v9.3c0,2.1-1.2,3.8-3.6,3.8c-2.4,0-3.6-1.6-3.6-3.8V1.4c0-0.5,0-0.7,0.3-0.9s0.6-0.3,1.2-0.4l0,0
						c0.1,0,0-0.2,0-0.2h-8.7c-0.1,0-0.1,0.2,0,0.2l0,0c0.3,0,0.5,0,0.7,0.2c0.3,0.2,0.3,0.5,0.3,1v9.2c0,4.4,2.4,8.2,9.8,8.2
						c7.4,0,9.8-3.8,9.8-8.2C131.7,10.5,131.7,1.5,131.6,1.5z"/>
				</g>
				<g>
					<defs>
						<rect id="SVGID_00000074426501996086166810000018160432776651457205_" x="48.5" width="103.1" height="53.3"/>
					</defs>
					<clipPath id="SVGID_00000023269792228079068510000007930664031906524349_">
						<use xlink:href="#SVGID_00000074426501996086166810000018160432776651457205_"  style="overflow:visible;"/>
					</clipPath>
					<path style="clip-path:url(#SVGID_00000023269792228079068510000007930664031906524349_);fill:#002E5D;" d="M103.6,18.5
						c0.1,0,0.1-0.2,0-0.2l0,0c-0.6-0.1-0.9-0.1-1.3-0.4c-0.4-0.2-0.3-0.4-0.3-0.9v-5.9l6.4-9.5c0.4-0.5,0.6-0.8,0.9-1
						c0,0,0.2-0.1,0.2-0.2c0.3-0.1,0.4-0.2,0.7-0.2l0,0c0.1,0,0.1-0.2,0-0.2h-8.6c-0.1,0-0.1,0.2,0,0.2l0,0c0.4,0,0.9,0,0.9,0.6
						S100,5,99.1,6.4C99,6.6,98.9,6.8,98.8,7c0-0.2-0.2-0.5-0.3-0.6c-1.2-1.8-3.4-4.8-3.4-5.6C95,0.2,95.5,0.2,96,0.2l0,0
						c0.1,0,0.1-0.2,0-0.2h-9.1c-0.1,0,0,0.2,0,0.2l0,0c0.4,0,0.6,0,1.1,0.2c0.1,0,0.2,0.1,0.2,0.2c0.3,0.2,0.5,0.5,0.8,1l6.4,9.5
						V17c0,0.5,0,0.7-0.3,0.9c-0.3,0.2-0.7,0.3-1.3,0.4l0,0c-0.1,0,0,0.2,0,0.2H103.6z"/>
				</g>
			</g>
		</g>
	</g>
</g>
</svg>
